<mxfile host="Electron" modified="2023-08-05T13:08:19.873Z" agent="Mozilla/5.0 (Windows NT 10.0; Win64; x64) AppleWebKit/537.36 (KHTML, like Gecko) draw.io/21.6.5 Chrome/114.0.5735.243 Electron/25.3.1 Safari/537.36" etag="tf6EQg0yvNtRepZv8imp" version="21.6.5" type="device" pages="2">
  <diagram name="Page-1" id="XOXf5aK53wKMyPEEGna2">
    <mxGraphModel dx="2236" dy="1166" grid="1" gridSize="8" guides="1" tooltips="1" connect="1" arrows="1" fold="1" page="1" pageScale="1" pageWidth="1920" pageHeight="1200" math="0" shadow="0">
      <root>
        <mxCell id="0" />
        <mxCell id="1" parent="0" />
        <mxCell id="kbCha7JEYgbY8Bg8FHVl-3" value="&lt;h1&gt;&lt;font color=&quot;#660033&quot;&gt;EMBEDDED SYSTEMS ENGINEERING ROADMAP&lt;/font&gt;&lt;/h1&gt;" style="text;html=1;strokeColor=none;fillColor=none;spacing=8;spacingTop=0;whiteSpace=wrap;overflow=hidden;rounded=0;fontColor=#99004D;verticalAlign=middle;align=center;fontFamily=Verdana;" vertex="1" parent="1">
          <mxGeometry x="640" y="64" width="680" height="96" as="geometry" />
        </mxCell>
        <mxCell id="kbCha7JEYgbY8Bg8FHVl-10" style="edgeStyle=orthogonalEdgeStyle;orthogonalLoop=1;jettySize=auto;html=1;exitX=0.5;exitY=1;exitDx=0;exitDy=0;entryX=0.5;entryY=0;entryDx=0;entryDy=0;arcSize=32;strokeColor=#660033;endArrow=none;endFill=0;strokeWidth=2;jumpSize=6;comic=0;flowAnimation=0;bendable=0;rounded=1;" edge="1" parent="1" source="kbCha7JEYgbY8Bg8FHVl-5" target="kbCha7JEYgbY8Bg8FHVl-6">
          <mxGeometry relative="1" as="geometry" />
        </mxCell>
        <mxCell id="kbCha7JEYgbY8Bg8FHVl-5" value="&lt;font style=&quot;font-size: 16px;&quot; face=&quot;Verdana&quot;&gt;START&lt;/font&gt;" style="ellipse;whiteSpace=wrap;html=1;aspect=fixed;fillColor=#D4E1F5;strokeColor=#660033;fontColor=#660033;strokeWidth=2;" vertex="1" parent="1">
          <mxGeometry x="896" y="160" width="96" height="96" as="geometry" />
        </mxCell>
        <mxCell id="kbCha7JEYgbY8Bg8FHVl-6" value="&lt;font style=&quot;font-size: 16px;&quot;&gt;ENGINEERING FOUNDATION&lt;/font&gt;" style="rounded=1;whiteSpace=wrap;html=1;fillColor=#D4E1F5;strokeColor=#660033;spacing=8;strokeWidth=2;" vertex="1" parent="1">
          <mxGeometry x="64" y="352" width="640" height="64" as="geometry" />
        </mxCell>
        <mxCell id="kbCha7JEYgbY8Bg8FHVl-8" value="&lt;font style=&quot;font-size: 16px;&quot;&gt;SOFT SKILLS&lt;/font&gt;" style="rounded=1;whiteSpace=wrap;html=1;fillColor=#D4E1F5;strokeColor=#660033;spacing=8;strokeWidth=2;" vertex="1" parent="1">
          <mxGeometry x="1376" y="352" width="288" height="64" as="geometry" />
        </mxCell>
        <mxCell id="kbCha7JEYgbY8Bg8FHVl-9" value="&lt;font style=&quot;font-size: 16px;&quot;&gt;EMBEDDED SYSTEMS&lt;/font&gt;" style="rounded=1;whiteSpace=wrap;html=1;fillColor=#D4E1F5;strokeColor=#660033;spacing=8;strokeWidth=2;" vertex="1" parent="1">
          <mxGeometry x="800" y="640" width="288" height="64" as="geometry" />
        </mxCell>
        <mxCell id="kbCha7JEYgbY8Bg8FHVl-11" style="edgeStyle=orthogonalEdgeStyle;rounded=1;orthogonalLoop=1;jettySize=auto;html=1;exitX=0.5;exitY=1;exitDx=0;exitDy=0;entryX=0.5;entryY=0;entryDx=0;entryDy=0;arcSize=32;strokeColor=#660033;endArrow=none;endFill=0;strokeWidth=2;jumpSize=6;" edge="1" parent="1" source="kbCha7JEYgbY8Bg8FHVl-5" target="kbCha7JEYgbY8Bg8FHVl-9">
          <mxGeometry relative="1" as="geometry">
            <mxPoint x="792" y="488" as="sourcePoint" />
            <mxPoint x="216" y="552" as="targetPoint" />
          </mxGeometry>
        </mxCell>
        <mxCell id="kbCha7JEYgbY8Bg8FHVl-12" style="edgeStyle=orthogonalEdgeStyle;rounded=1;orthogonalLoop=1;jettySize=auto;html=1;exitX=0.5;exitY=1;exitDx=0;exitDy=0;entryX=0.5;entryY=0;entryDx=0;entryDy=0;arcSize=32;strokeColor=#660033;endArrow=none;endFill=0;strokeWidth=2;jumpSize=6;" edge="1" parent="1" source="kbCha7JEYgbY8Bg8FHVl-5" target="kbCha7JEYgbY8Bg8FHVl-8">
          <mxGeometry relative="1" as="geometry">
            <mxPoint x="888" y="512" as="sourcePoint" />
            <mxPoint x="888" y="576" as="targetPoint" />
          </mxGeometry>
        </mxCell>
        <mxCell id="xI4zq-4-7GTKaHy-V4-l-5" style="edgeStyle=orthogonalEdgeStyle;rounded=0;orthogonalLoop=1;jettySize=auto;html=1;exitX=0.5;exitY=1;exitDx=0;exitDy=0;entryX=0.5;entryY=0;entryDx=0;entryDy=0;endArrow=none;endFill=0;strokeWidth=2;strokeColor=#660033;" edge="1" parent="1" source="kbCha7JEYgbY8Bg8FHVl-14" target="xI4zq-4-7GTKaHy-V4-l-2">
          <mxGeometry relative="1" as="geometry" />
        </mxCell>
        <mxCell id="kbCha7JEYgbY8Bg8FHVl-14" value="&lt;span style=&quot;font-size: 16px;&quot;&gt;MATHEMATICS&lt;/span&gt;" style="rounded=1;whiteSpace=wrap;html=1;fillColor=#D4E1F5;strokeColor=#660033;spacing=8;strokeWidth=2;" vertex="1" parent="1">
          <mxGeometry x="64" y="480" width="288" height="64" as="geometry" />
        </mxCell>
        <mxCell id="kbCha7JEYgbY8Bg8FHVl-16" style="edgeStyle=orthogonalEdgeStyle;rounded=1;orthogonalLoop=1;jettySize=auto;html=1;exitX=0.5;exitY=1;exitDx=0;exitDy=0;arcSize=32;strokeColor=#660033;endArrow=none;endFill=0;strokeWidth=2;entryX=0.5;entryY=0;entryDx=0;entryDy=0;jumpSize=6;" edge="1" parent="1" source="kbCha7JEYgbY8Bg8FHVl-6" target="kbCha7JEYgbY8Bg8FHVl-14">
          <mxGeometry relative="1" as="geometry">
            <mxPoint x="704" y="552" as="sourcePoint" />
            <mxPoint x="480" y="432" as="targetPoint" />
          </mxGeometry>
        </mxCell>
        <mxCell id="kbCha7JEYgbY8Bg8FHVl-17" value="Engineering Mathematics" style="rounded=1;whiteSpace=wrap;html=1;fillColor=#fff2cc;strokeColor=#660033;spacing=8;strokeWidth=2;rotation=0;" vertex="1" parent="1">
          <mxGeometry x="64" y="736" width="288" height="48" as="geometry" />
        </mxCell>
        <mxCell id="kbCha7JEYgbY8Bg8FHVl-18" value="&lt;span style=&quot;font-size: 16px;&quot;&gt;COMPUTER SCIENCE&lt;/span&gt;" style="rounded=1;whiteSpace=wrap;html=1;fillColor=#D4E1F5;strokeColor=#660033;spacing=8;strokeWidth=2;arcSize=16;" vertex="1" parent="1">
          <mxGeometry x="416" y="480" width="288" height="64" as="geometry" />
        </mxCell>
        <mxCell id="kbCha7JEYgbY8Bg8FHVl-19" style="edgeStyle=orthogonalEdgeStyle;rounded=1;orthogonalLoop=1;jettySize=auto;html=1;exitX=0.5;exitY=1;exitDx=0;exitDy=0;arcSize=32;strokeColor=#660033;endArrow=none;endFill=0;strokeWidth=2;entryX=0.5;entryY=0;entryDx=0;entryDy=0;jumpSize=6;" edge="1" parent="1" source="kbCha7JEYgbY8Bg8FHVl-6" target="kbCha7JEYgbY8Bg8FHVl-18">
          <mxGeometry relative="1" as="geometry">
            <mxPoint x="376" y="424" as="sourcePoint" />
            <mxPoint x="216" y="488" as="targetPoint" />
          </mxGeometry>
        </mxCell>
        <mxCell id="kbCha7JEYgbY8Bg8FHVl-20" value="Operating Systems: Three Easy Pieces" style="rounded=1;whiteSpace=wrap;html=1;fillColor=#fff2cc;strokeColor=#660033;spacing=8;strokeWidth=2;" vertex="1" parent="1">
          <mxGeometry x="416" y="736" width="288" height="48" as="geometry" />
        </mxCell>
        <mxCell id="xI4zq-4-7GTKaHy-V4-l-6" style="edgeStyle=orthogonalEdgeStyle;rounded=0;orthogonalLoop=1;jettySize=auto;html=1;exitX=0.5;exitY=1;exitDx=0;exitDy=0;strokeWidth=2;endArrow=none;endFill=0;strokeColor=#660033;" edge="1" parent="1" source="xI4zq-4-7GTKaHy-V4-l-2" target="xI4zq-4-7GTKaHy-V4-l-3">
          <mxGeometry relative="1" as="geometry" />
        </mxCell>
        <mxCell id="xI4zq-4-7GTKaHy-V4-l-2" value="&lt;span style=&quot;font-size: 16px;&quot;&gt;Algebra&lt;/span&gt;" style="rounded=1;whiteSpace=wrap;html=1;spacing=8;strokeWidth=2;strokeColor=#660033;" vertex="1" parent="1">
          <mxGeometry x="64" y="560" width="288" height="32" as="geometry" />
        </mxCell>
        <mxCell id="xI4zq-4-7GTKaHy-V4-l-3" value="&lt;span style=&quot;font-size: 16px;&quot;&gt;Calculus&lt;/span&gt;" style="rounded=1;whiteSpace=wrap;html=1;spacing=8;strokeWidth=2;strokeColor=#660033;" vertex="1" parent="1">
          <mxGeometry x="64" y="608" width="288" height="32" as="geometry" />
        </mxCell>
        <mxCell id="xI4zq-4-7GTKaHy-V4-l-4" value="&lt;span style=&quot;font-size: 16px;&quot;&gt;Discrete Mathematics&lt;/span&gt;" style="rounded=1;whiteSpace=wrap;html=1;spacing=8;strokeWidth=2;strokeColor=#660033;" vertex="1" parent="1">
          <mxGeometry x="64" y="656" width="288" height="32" as="geometry" />
        </mxCell>
        <mxCell id="xI4zq-4-7GTKaHy-V4-l-7" style="edgeStyle=orthogonalEdgeStyle;rounded=0;orthogonalLoop=1;jettySize=auto;html=1;exitX=0.5;exitY=1;exitDx=0;exitDy=0;strokeWidth=2;endArrow=none;endFill=0;entryX=0.5;entryY=0;entryDx=0;entryDy=0;strokeColor=#660033;" edge="1" parent="1" source="xI4zq-4-7GTKaHy-V4-l-3" target="xI4zq-4-7GTKaHy-V4-l-4">
          <mxGeometry relative="1" as="geometry">
            <mxPoint x="504" y="832" as="sourcePoint" />
            <mxPoint x="208" y="656" as="targetPoint" />
          </mxGeometry>
        </mxCell>
        <mxCell id="xI4zq-4-7GTKaHy-V4-l-8" value="&lt;span style=&quot;font-size: 16px;&quot;&gt;Operating Systems&lt;/span&gt;" style="rounded=1;whiteSpace=wrap;html=1;spacing=8;strokeWidth=2;strokeColor=#660033;" vertex="1" parent="1">
          <mxGeometry x="416" y="560" width="288" height="32" as="geometry" />
        </mxCell>
        <mxCell id="xI4zq-4-7GTKaHy-V4-l-9" style="edgeStyle=orthogonalEdgeStyle;rounded=0;orthogonalLoop=1;jettySize=auto;html=1;exitX=0.5;exitY=1;exitDx=0;exitDy=0;entryX=0.5;entryY=0;entryDx=0;entryDy=0;endArrow=none;endFill=0;strokeWidth=2;strokeColor=#660033;" edge="1" parent="1" source="kbCha7JEYgbY8Bg8FHVl-18" target="xI4zq-4-7GTKaHy-V4-l-8">
          <mxGeometry relative="1" as="geometry">
            <mxPoint x="552" y="688" as="sourcePoint" />
            <mxPoint x="552" y="704" as="targetPoint" />
          </mxGeometry>
        </mxCell>
      </root>
    </mxGraphModel>
  </diagram>
  <diagram id="kpqS2MDadFXErLPyjNvh" name="Page-2">
    <mxGraphModel dx="2236" dy="1166" grid="1" gridSize="10" guides="1" tooltips="1" connect="1" arrows="1" fold="1" page="1" pageScale="1" pageWidth="1920" pageHeight="1200" math="0" shadow="0">
      <root>
        <mxCell id="0" />
        <mxCell id="1" parent="0" />
      </root>
    </mxGraphModel>
  </diagram>
</mxfile>
